<svg id="Capa_1" enable-background="new 0 0 512 512" height="512" viewBox="0 0 512 512" width="512" xmlns="http://www.w3.org/2000/svg"><g><g><path d="m378.426 36.356c1.152 0 2.09.938 2.09 2.091v204.342l36.357 22.519v-262.217c0-1.707-1.384-3.091-3.091-3.091h-288.457c-1.707 0-3.091 1.384-3.091 3.091v33.266h256.192z" fill="#dbf1d0"/><path d="m157.103 36.356v-33.265c0-1.707 1.384-3.091 3.091-3.091h-34.868c-1.707 0-3.091 1.384-3.091 3.091v33.266h34.868z" fill="#c1e9af"/><path d="m343.068 71.713c1.153 0 2.091.938 2.091 2.09v152.887l2.106-1.305c.774-.479 1.666-.733 2.576-.733.911 0 1.803.253 2.577.733l29.097 18.022v-204.96c0-1.707-1.384-3.091-3.091-3.091h-288.456c-1.707 0-3.091 1.384-3.091 3.091v33.266z" fill="#fff3de"/><path d="m121.046 71.713v-33.266c0-1.707 1.384-3.091 3.091-3.091h-34.169c-1.707 0-3.091 1.384-3.091 3.091v33.266z" fill="#ffe5c2"/><path d="m270.101 444.58c-18.999-16.191-29.895-39.793-29.895-64.755v-85.403c0-1.706.866-3.261 2.316-4.16l103.637-64.191v-152.267c0-1.707-1.384-3.09-3.091-3.09h-288.457c-1.707 0-3.091 1.384-3.091 3.09v394.527c0 1.707 1.384 3.09 3.091 3.09h246.986z" fill="#dff6fd"/><g><path d="m86.02 468.331v-394.527c0-1.707 1.384-3.091 3.091-3.091h-34.5c-1.707 0-3.091 1.384-3.091 3.091v394.527c0 1.707 1.384 3.091 3.091 3.091h34.499c-1.706-.001-3.09-1.384-3.09-3.091z" fill="#c8effe"/></g></g><g><path d="m249.819 128.546h-101.958c-4.142 0-7.5-3.358-7.5-7.5s3.358-7.5 7.5-7.5h101.958c4.142 0 7.5 3.358 7.5 7.5s-3.358 7.5-7.5 7.5z" fill="#01d0fb"/></g><g><path d="m284.845 181.085h-172.01c-4.142 0-7.5-3.358-7.5-7.5s3.358-7.5 7.5-7.5h172.009c4.143 0 7.5 3.358 7.5 7.5s-3.357 7.5-7.499 7.5z" fill="#01d0fb"/></g><g><path d="m284.845 217.142h-172.01c-4.142 0-7.5-3.358-7.5-7.5s3.358-7.5 7.5-7.5h172.009c4.143 0 7.5 3.358 7.5 7.5s-3.357 7.5-7.499 7.5z" fill="#01d0fb"/></g><g><path d="m284.845 253.198h-172.01c-4.142 0-7.5-3.358-7.5-7.5s3.358-7.5 7.5-7.5h172.009c4.143 0 7.5 3.358 7.5 7.5s-3.357 7.5-7.499 7.5z" fill="#01d0fb"/></g><g><path d="m171.525 289.254h-58.69c-4.142 0-7.5-3.358-7.5-7.5s3.358-7.5 7.5-7.5h58.69c4.142 0 7.5 3.358 7.5 7.5s-3.358 7.5-7.5 7.5z" fill="#01c0fa"/></g><g fill="#01c0fa"><path d="m268.367 274.254h-72.117c-4.142 0-7.5 3.358-7.5 7.5s3.358 7.5 7.5 7.5h47.9z"/><path d="m240.206 310.311h-127.37c-4.142 0-7.5 3.358-7.5 7.5s3.358 7.5 7.5 7.5h127.37z"/><path d="m240.206 346.367h-127.37c-4.142 0-7.5 3.358-7.5 7.5s3.358 7.5 7.5 7.5h127.37z"/><path d="m240.248 382.423h-127.413c-4.142 0-7.5 3.358-7.5 7.5s3.358 7.5 7.5 7.5h129.21c-1.033-4.9-1.643-9.916-1.797-15z"/></g><g><path d="m239.206 294.422v85.403c0 25.215 11.055 49.161 30.247 65.516l76.568 65.251c2.202 1.877 5.442 1.877 7.644 0l76.568-65.251c19.191-16.355 30.247-40.301 30.247-65.516v-85.403c0-2.04-1.055-3.935-2.79-5.01l-104.744-64.876c-1.901-1.177-4.305-1.177-6.206 0l-104.744 64.876c-1.735 1.075-2.79 2.97-2.79 5.01z" fill="#fac600"/></g><g><g><path d="m300.721 431.382c-19.191-16.355-30.247-40.301-30.247-65.516v-94.093l-28.479 17.639c-1.734 1.074-2.79 2.969-2.79 5.01v85.403c0 25.215 11.055 49.161 30.247 65.516l76.568 65.251c2.202 1.877 5.442 1.877 7.644 0l20.003-17.046z" fill="#e8b800"/></g></g><g><circle cx="349.842" cy="353.589" fill="#4fc123" r="63.047"/></g><g><path d="m321.52 353.589c0-28.795 19.312-53.064 45.684-60.606-5.518-1.578-11.338-2.441-17.362-2.441-34.82 0-63.047 28.227-63.047 63.047s28.227 63.047 63.047 63.047c6.025 0 11.845-.863 17.362-2.441-26.372-7.543-45.684-31.811-45.684-60.606z" fill="#47a920"/></g><g><path d="m347.156 377.572c-1.919 0-3.839-.732-5.303-2.197l-18.646-18.644c-2.929-2.929-2.929-7.677 0-10.606 2.93-2.929 7.678-2.929 10.607 0l13.341 13.341 23.594-23.595c2.93-2.929 7.678-2.929 10.607 0s2.929 7.678 0 10.606l-28.897 28.898c-1.464 1.464-3.384 2.197-5.303 2.197z" fill="#fff"/></g></g></svg>