<?xml version="1.0" encoding="UTF-8"?>
<!DOCTYPE svg PUBLIC "-//W3C//DTD SVG 1.1//EN" "http://www.w3.org/Graphics/SVG/1.1/DTD/svg11.dtd">
<!-- Creator: CorelDRAW 2021.5 -->
<svg xmlns="http://www.w3.org/2000/svg" xml:space="preserve" width="149.171mm" height="120.765mm" version="1.1" style="shape-rendering:geometricPrecision; text-rendering:geometricPrecision; image-rendering:optimizeQuality; fill-rule:evenodd; clip-rule:evenodd"
viewBox="0 0 16358.57 13243.52"
 xmlns:xlink="http://www.w3.org/1999/xlink"
 xmlns:xodm="http://www.corel.com/coreldraw/odm/2003">
 <defs>
  <style type="text/css">
   <![CDATA[
    .str0 {stroke:#92381F;stroke-width:76.96;stroke-linecap:round;stroke-linejoin:round;stroke-miterlimit:22.9256}
    .fil5 {fill:none;fill-rule:nonzero}
    .fil7 {fill:#FFAE00}
    .fil2 {fill:#F9B200;fill-rule:nonzero}
    .fil1 {fill:#F09714;fill-rule:nonzero}
    .fil0 {fill:#92381F;fill-rule:nonzero}
    .fil6 {fill:#92381F;fill-rule:nonzero}
    .fil3 {fill:#8BB72F;fill-rule:nonzero}
    .fil4 {fill:#6D9137;fill-rule:nonzero}
   ]]>
  </style>
 </defs>
 <g id="Layer_x0020_1">
  <metadata id="CorelCorpID_0Corel-Layer"/>
  <g id="_2039599234768">
   <path class="fil0" d="M3092.05 7834.5c209.61,136.99 378.78,319.36 507.5,547.11 128.73,228.58 193.11,507.5 193.11,838.41 0,289.65 -57.77,542.99 -173.3,757.54 -114.7,215.38 -267.36,391.97 -457.99,528.95 -193.1,136.99 -413.43,238.49 -659.34,305.34 -245.91,66.84 -503.38,100.67 -772.39,100.67l-1729.64 0 0 -188.15c51.99,-1.64 116.35,-6.6 193.93,-14.85 78.39,-7.42 129.56,-17.33 155.96,-28.89 57.76,-23.93 98.2,-56.94 121.3,-97.37 22.28,-41.27 33.84,-90.78 33.84,-149.36l0 -2432.71c0,-55.29 -10.74,-104.81 -31.36,-149.37 -20.63,-43.73 -61.88,-80.04 -122.13,-107.27 -61.06,-27.23 -126.26,-46.21 -193.92,-56.11 -68.5,-9.08 -120.48,-15.68 -157.62,-18.98l0 -188.14 1823.72 0c194.74,0 403.52,24.75 625.5,75.09 222.81,49.51 436.54,142.76 642.84,278.1zm-492.64 2460.77c79.22,-129.56 136.98,-283.05 173.29,-461.29 36.31,-178.25 54.46,-383.72 54.46,-616.43 0,-227.76 -23.93,-434.89 -72.62,-622.21 -48.68,-187.33 -119.65,-347.41 -212.9,-479.45 -94.07,-132.86 -210.42,-235.18 -350.71,-307.8 -139.46,-72.62 -297.89,-108.93 -475.31,-108.93 -56.94,0 -121.31,0.83 -193.1,3.3 -71.8,2.48 -125.43,4.96 -160.92,6.6l0 2607.66c0,58.59 7.42,109.75 23.11,154.32 14.86,43.73 41.27,83.34 78.4,117.18 37.13,33.83 83.34,60.24 136.98,78.4 54.47,18.98 124.61,28.05 212.08,28.05 182.37,0 339.16,-33.83 469.55,-101.49 131.2,-67.67 236.83,-167.52 317.71,-297.9zm3975.02 -1493.63c118.83,111.41 210.43,244.26 273.15,399.41 62.71,154.31 94.07,321.83 94.07,502.54 0,179.07 -31.36,347.41 -93.25,506.68 -61.89,158.44 -152.66,293.78 -271.49,406.83 -127.09,120.48 -278.92,213.72 -455.52,278.1 -176.59,64.36 -377.94,96.55 -604.87,96.55 -196.4,0 -377.12,-28.06 -542.99,-85 -165.04,-56.11 -311.1,-140.28 -438.18,-253.33 -122.13,-108.11 -218.68,-240.96 -289.65,-400.23 -70.96,-158.44 -106.45,-335.86 -106.45,-533.09 0,-193.1 31.36,-364.74 93.25,-515.75 61.89,-150.2 155.14,-284.7 278.93,-402.71 118.82,-112.23 265.71,-199.7 440.66,-261.59 174.94,-61.89 370.51,-93.25 585.89,-93.25 225.28,0 424.16,31.35 595.8,93.25 171.65,61.89 318.53,149.36 440.66,261.59zm-618.07 1673.52c35.48,-89.95 61.88,-198.87 78.39,-327.61 17.33,-128.73 25.58,-278.1 25.58,-448.91 0,-112.23 -8.26,-240.96 -23.93,-385.38 -16.5,-145.23 -40.43,-259.11 -72.62,-343.28 -38.79,-100.68 -92.42,-180.73 -160.92,-238.49 -68.48,-57.77 -155.14,-86.65 -259.94,-86.65 -114.71,0 -206.3,31.35 -274.79,94.07 -68.5,62.72 -121.31,143.58 -158.44,243.44 -33.83,91.59 -56.94,198.87 -70.14,321.83 -12.38,122.95 -18.98,251.69 -18.98,384.55 0,175.77 5.78,321.01 17.33,435.7 10.74,114.71 37.97,230.24 81.7,345.77 37.13,99.85 90.77,179.07 160.09,236.83 69.32,57.76 156.8,86.65 263.25,86.65 96.55,0 179.89,-27.23 249.21,-80.87 69.32,-53.64 123.78,-132.86 164.22,-237.66zm4058.36 387.02c-70.14,31.35 -153.49,59.42 -250.03,85.82 -95.73,25.57 -197.22,38.78 -304.5,38.78 -197.22,0 -341.63,-29.71 -434.88,-88.29 -92.42,-58.59 -155.96,-142.76 -189.79,-252.51l-14.04 0c-55.28,54.46 -108.1,101.49 -158.43,140.28 -51.17,38.79 -105.63,71.8 -164.22,99.03 -75.92,35.48 -148.54,61.88 -219.5,80.04 -70.14,17.33 -168.34,26.41 -293.78,26.41 -188.15,0 -348.24,-55.29 -480.27,-165.87 -132.86,-110.58 -198.87,-256.65 -198.87,-439.02 0,-104.79 14.86,-193.92 43.73,-267.36 28.89,-73.44 70.15,-138.64 123.79,-194.75 47.86,-51.99 104.79,-94.9 168.34,-128.73 63.54,-33.83 133.68,-65.19 209.6,-94.07 145.24,-52.81 320.17,-108.11 523.18,-165.87 203.82,-56.95 352.36,-108.11 446.43,-153.5l0 -231.88c0,-40.43 -3.3,-94.07 -9.9,-160.09 -6.6,-66.02 -19.81,-121.31 -41.26,-166.69 -22.28,-51.99 -58.59,-95.73 -107.27,-131.21 -47.87,-35.49 -112.23,-52.81 -191.45,-52.81 -71.8,0 -131.21,9.9 -179.07,30.53 -47.87,19.81 -85.82,40.44 -115.53,61.07 4.95,32.19 18.98,81.7 41.26,147.71 22.28,66.02 33.84,129.57 33.84,191.45 0,27.23 -7.44,61.07 -21.46,102.33 -14.85,41.27 -35.49,74.28 -63.54,98.2 -36.31,32.18 -78.4,56.94 -123.78,75.09 -46.21,17.34 -117.19,26.41 -212.08,26.41 -135.34,0 -237.66,-33.01 -306.98,-98.19 -69.32,-65.19 -103.97,-150.2 -103.97,-254.99 0,-89.95 35.48,-170.82 107.27,-242.61 71.8,-71.8 159.26,-131.21 262.41,-177.42 101.5,-48.69 218.68,-85.82 350.71,-113.05 132.86,-26.41 254.99,-39.61 368.04,-39.61 155.96,0 299.55,9.08 430.76,28.05 130.38,18.16 247.57,56.11 352.36,114.71 100.68,56.11 179.9,137.81 238.49,245.09 58.59,106.45 88.3,245.91 88.3,418.38 0,182.37 -3.3,397.75 -9.9,646.96 -6.6,249.22 -9.9,413.43 -9.9,492.65 0,72.62 10.73,129.56 32.19,171.65 21.45,41.26 54.46,72.62 98.19,94.07 27.24,12.38 69.32,20.64 127.09,23.11 58.58,2.48 110.57,3.3 158.43,3.3l0 177.42zm-1193.25 -1256.79c-90.77,30.53 -181.54,66.02 -270.66,105.62 -89.95,39.61 -162.57,80.88 -219.5,124.61 -60.25,45.39 -107.28,103.15 -141.94,173.29 -33.84,70.15 -51.17,152.66 -51.17,248.39 0,125.43 28.89,217.04 86.65,273.15 57.77,56.94 128.73,84.99 213.73,84.99 89.12,0 162.57,-18.15 220.33,-54.46 57.77,-36.31 108.93,-80.87 152.66,-134.51l9.9 -821.07zm4266.33 124.6c0,363.1 -119.65,664.3 -358.96,903.61 -239.32,238.49 -542.99,358.14 -911.03,358.14 -141.94,0 -264.07,-9.9 -366.4,-30.53 -102.33,-19.81 -188.97,-44.57 -259.94,-73.44 -74.28,-30.54 -133.69,-61.07 -177.42,-90.78 -44.56,-29.71 -80.04,-54.46 -105.63,-74.26l-345.76 313.57 -143.58 -55.28c8.25,-118.01 15.67,-245.92 21.45,-382.9 5.78,-137.8 8.26,-323.47 8.26,-557.01l0 -2261.89c0,-61.07 -12.38,-118.01 -37.14,-170 -25.57,-52.81 -58.58,-92.42 -100.67,-119.65 -30.53,-19.81 -75.92,-36.31 -134.51,-51.16 -58.58,-14.04 -113.05,-23.11 -163.39,-26.41l0 -178.25 1196.55 -64.36 36.31 38.78 0 1570.37 14.86 0c117.18,-114.71 238.49,-198.87 362.26,-251.69 123.78,-53.64 248.39,-80.04 372.17,-80.04 338.33,0 604.88,115.53 800.46,346.59 194.74,230.23 292.12,542.98 292.12,936.6zm-866.47 28.89c0,-122.95 -9.07,-241.79 -28.05,-355.66 -18.16,-113.89 -49.51,-214.56 -93.25,-301.2 -42.91,-87.48 -100.68,-157.62 -171.65,-210.43 -70.96,-51.98 -158.44,-78.39 -264.07,-78.39 -98.19,0 -179.89,16.5 -244.25,48.68 -64.37,32.19 -122.13,80.04 -174.12,142.76l0 1411.11c9.9,32.19 28.06,74.28 54.46,127.08 26.41,52.81 53.65,93.26 80.88,122.13 38.79,42.09 80.04,74.28 123.78,95.73 43.73,22.28 104.81,33.01 184.03,33.01 164.21,0 294.6,-89.95 389.49,-270.67 94.9,-179.89 142.76,-434.88 142.76,-764.14zm3938.71 1103.3c-70.14,31.35 -153.49,59.42 -250.03,85.82 -95.73,25.57 -197.22,38.78 -304.5,38.78 -197.22,0 -341.63,-29.71 -434.88,-88.29 -92.42,-58.59 -155.96,-142.76 -189.79,-252.51l-14.04 0c-55.28,54.46 -108.1,101.49 -158.43,140.28 -51.17,38.79 -105.63,71.8 -164.22,99.03 -75.92,35.48 -148.54,61.88 -219.5,80.04 -70.14,17.33 -168.34,26.41 -293.78,26.41 -188.15,0 -348.24,-55.29 -480.27,-165.87 -132.86,-110.58 -198.87,-256.65 -198.87,-439.02 0,-104.79 14.86,-193.92 43.73,-267.36 28.89,-73.44 70.15,-138.64 123.79,-194.75 47.86,-51.99 104.79,-94.9 168.34,-128.73 63.54,-33.83 133.68,-65.19 209.6,-94.07 145.24,-52.81 320.17,-108.11 523.18,-165.87 203.82,-56.95 352.36,-108.11 446.43,-153.5l0 -231.88c0,-40.43 -3.3,-94.07 -9.9,-160.09 -6.6,-66.02 -19.81,-121.31 -41.26,-166.69 -22.28,-51.99 -58.59,-95.73 -107.27,-131.21 -47.87,-35.49 -112.23,-52.81 -191.45,-52.81 -71.8,0 -131.21,9.9 -179.07,30.53 -47.87,19.81 -85.82,40.44 -115.53,61.07 4.95,32.19 18.98,81.7 41.26,147.71 22.28,66.02 33.84,129.57 33.84,191.45 0,27.23 -7.44,61.07 -21.46,102.33 -14.85,41.27 -35.49,74.28 -63.54,98.2 -36.31,32.18 -78.4,56.94 -123.78,75.09 -46.21,17.34 -117.19,26.41 -212.08,26.41 -135.34,0 -237.66,-33.01 -306.98,-98.19 -69.32,-65.19 -103.97,-150.2 -103.97,-254.99 0,-89.95 35.48,-170.82 107.27,-242.61 71.8,-71.8 159.26,-131.21 262.41,-177.42 101.5,-48.69 218.68,-85.82 350.71,-113.05 132.86,-26.41 254.99,-39.61 368.04,-39.61 155.96,0 299.55,9.08 430.76,28.05 130.38,18.16 247.57,56.11 352.36,114.71 100.68,56.11 179.9,137.81 238.49,245.09 58.59,106.45 88.3,245.91 88.3,418.38 0,182.37 -3.3,397.75 -9.9,646.96 -6.6,249.22 -9.9,413.43 -9.9,492.65 0,72.62 10.73,129.56 32.19,171.65 21.45,41.26 54.46,72.62 98.19,94.07 27.24,12.38 69.32,20.64 127.09,23.11 58.58,2.48 110.57,3.3 158.43,3.3l0 177.42zm-1193.25 -1256.79c-90.77,30.53 -181.54,66.02 -270.66,105.62 -89.95,39.61 -162.57,80.88 -219.5,124.61 -60.25,45.39 -107.28,103.15 -141.94,173.29 -33.84,70.15 -51.17,152.66 -51.17,248.39 0,125.43 28.89,217.04 86.65,273.15 57.77,56.94 128.73,84.99 213.73,84.99 89.12,0 162.57,-18.15 220.33,-54.46 57.77,-36.31 108.93,-80.87 152.66,-134.51l9.9 -821.07z"/>
   <g>
    <path class="fil1" d="M10672.56 3779.13c-3.17,21.31 -51.93,33.52 -109.03,24.44 -604.36,-100.29 -1215.01,-254.86 -1803.68,-523.95 -587.3,-263.46 -1154.15,-655.4 -1596.75,-1185.54 -42.92,-48.79 -59.05,-103.6 -42.41,-116.3l0 0c17.93,-13.91 61.28,18.28 103.17,65.87 433.5,519.07 989.75,904.3 1568.82,1164.16 580.23,265.29 1184.31,418.34 1783.24,517.69 56.53,9.05 99.78,31.77 96.62,53.63z"/>
    <path class="fil2" d="M8976.79 2991.31c-8.67,19.98 -58.03,16.43 -110.3,-7.98l-158.4 -74.58 -155.09 -83.7c-104.51,-53.11 -202.69,-120.63 -303.66,-181.5 -196.19,-133.3 -386.53,-278.27 -560.36,-444.74 -346.87,-332.69 -634.64,-738.16 -817.45,-1191.59 -23.39,-55.64 -23.57,-107.56 -2.59,-115.17 20.07,-7.27 53.04,31.48 75.78,85.52 178.42,442.4 459.39,838.44 798.86,1164.09 170.11,163.09 356.76,305.02 549.25,435.91 99.22,59.82 195.48,126.14 298.38,178.33l152.49 82.34 156.01 73.42c51.29,23.93 85.79,59.65 77.08,79.66z"/>
    <path class="fil1" d="M10860.72 2509.8c3.27,-21.94 -34.11,-43.87 -82.6,-51.52 -512.06,-84.82 -1009.61,-214.49 -1452.35,-417.74 -445.27,-199.15 -829.17,-476.21 -1114.61,-816.81 -28.24,-31.06 -60.36,-48.61 -78.4,-34.89 -16.54,12.89 -11.61,53.04 17.58,85.38 294.59,351.67 689.09,635.38 1142.64,838.14 451.18,207.12 955.27,338.21 1472.69,423.98 49.03,7.71 91.95,-5.24 95.05,-26.54z"/>
    <path class="fil2" d="M9240.27 2390.42c8.67,-19.98 -20.42,-53.22 -65.02,-74.1l-135.82 -63.68 -130.98 -70.96c-89.27,-44.76 -169.55,-101.41 -254.49,-151.81 -161.98,-110.67 -317.83,-228.9 -457.31,-362.58 -277.95,-267.35 -502.16,-584.78 -644.08,-936.63 -18.22,-42.83 -47.82,-72.21 -67.91,-64.98 -20.99,7.53 -24.16,50.28 -5.33,94.71 146.31,362.88 377.35,689.63 662.76,963.98 143.12,137.31 302.7,258.4 468.36,371.4 86.69,51.57 168.87,109.5 259.75,155.06l133.57 72.32 138.29 64.84c45.58,21.34 89.5,22.44 98.2,2.42z"/>
    <path class="fil1" d="M9108.56 2690.84c-8.69,20.08 -55.34,17.72 -104.26,-5.15 -519.62,-235.11 -998.08,-576.55 -1363.6,-1020.05 -361.43,-444.48 -607.19,-989.91 -658.72,-1565.85 -4.5,-54.67 13.06,-100.25 35.04,-99.77 21.69,0.56 39.52,41.71 43.81,93.72 49.5,555.74 288.77,1089.2 641.05,1521.92 356.46,432.34 824.25,767.04 1335.6,998.32 47.97,22.43 79.74,56.95 71.07,76.86z"/>
    <path class="fil2" d="M11740.43 3197.13l-695.04 -67.37c-492.05,-53.35 -918.1,-265.31 -1093.44,-498.21 -211.34,-269.51 -384.98,-557.44 -512.14,-840.72 242.17,109.69 504.07,199.34 777.87,271.82 480.53,121.59 926.01,322.39 1096.07,557.76 66.99,95.5 133.5,190.68 206.86,286.95 76.18,96.75 149.47,193.39 219.83,289.77z"/>
    <path class="fil1" d="M10369.27 2561.6c94.74,121.24 228.91,220.36 374.53,308.15 147.74,78.82 306.33,152.26 454.9,194.81 148.27,46.15 282.09,78.15 382.13,100.59 98.94,21.88 159.59,31.98 159.59,31.98 -70.36,-96.38 -143.65,-193.03 -219.83,-289.77 -73.35,-96.26 -139.86,-191.45 -206.86,-286.95 -170.06,-235.37 -615.53,-436.16 -1096.07,-557.76 -273.8,-72.49 -535.7,-162.14 -777.87,-271.82 0,0 33.13,21.4 88.77,57.24 58.06,34.03 132.96,92.11 226.48,156.4 181.68,135.76 423.54,316.59 614.21,557.12z"/>
    <path class="fil2" d="M11729.32 3300.15l-695.98 -67.39c-494.65,-53.71 -963.11,-52.12 -1261.66,45.41 -350.34,120.59 -723.37,205.49 -1125.89,251.17 360.73,163.79 727.58,287.43 1093.81,383.9 646.63,163.35 1237.16,77.9 1464.56,-128.13 91.65,-80.61 183.93,-161.63 269.2,-242.66 82.4,-80.94 167.73,-161.76 255.97,-242.3z"/>
    <path class="fil1" d="M10157.93 3546.67c152.94,-64.89 327.81,-114.55 503.08,-144.83 175.96,-39.48 352.27,-53.27 510.99,-74.38 158.2,-17.62 299.34,-25.46 397.3,-27.15 99.16,-2.18 160.02,-0.15 160.02,-0.15 -88.24,80.54 -173.56,161.36 -255.97,242.3 -85.27,81.03 -177.56,162.05 -269.2,242.66 -227.4,206.04 -817.93,291.49 -1464.56,128.13 -366.22,-96.47 -733.08,-220.11 -1093.81,-383.9 0,0 13.69,5.08 38.85,14.27 25.26,8.74 61.97,22.54 108.59,33.98 93.14,22.9 223.99,60.13 375.4,76.53 302.69,42.49 683.51,25.05 989.3,-107.46z"/>
    <path class="fil2" d="M13792.46 3820.74c-205.64,-115.44 -417.53,-221.05 -639.09,-301.09 -467.05,-176.53 -898.93,-364.66 -1132.86,-574.47 -136.49,-127.8 -279.59,-238.89 -428.65,-359.56 -80.48,-59.93 -134.17,-116.51 -198.81,-174.5l-182.78 -172.3 474.83 44.42 279.51 28.17c93.16,9.71 187.7,27.85 281.42,41.83 82.59,14.23 163.06,26.24 242.16,48.41 79.13,22.04 155.88,45.95 229.65,71.45 147.5,46.99 283.07,119.46 400.63,186.46 117.98,64.96 216.56,150.98 293.98,225.59 38.48,38.58 71.72,76 98.78,114.13 26.74,39.71 47.56,78.37 62.39,115.46 46.67,119.63 90.29,233.77 126.52,352.49 35.6,120.3 66.36,238.27 92.31,353.52z"/>
    <path class="fil1" d="M12485.01 2856.75c231.73,241.65 569.64,463.53 837.87,641.66 131.71,95.87 252.6,167.69 334.17,230.47 83.25,58.93 135.41,91.87 135.41,91.87 -25.96,-115.26 -56.72,-233.22 -92.31,-353.52 -36.23,-118.72 -79.85,-232.86 -126.52,-352.49 -14.83,-37.1 -35.65,-75.76 -62.39,-115.46 -27.06,-38.13 -60.3,-75.55 -98.78,-114.13 -77.41,-74.6 -176,-160.62 -293.98,-225.59 -117.56,-67 -253.14,-139.47 -400.63,-186.46 -73.77,-25.5 -150.51,-49.4 -229.65,-71.45 -79.1,-22.16 -159.57,-34.17 -242.16,-48.41 -93.72,-13.97 -188.26,-32.12 -281.42,-41.83l-279.51 -28.17 -474.83 -44.42c0,0 43.32,7.83 115.06,26.46 35.84,9.32 78.89,21.4 127.28,36.39 53.15,17.17 112.38,36.21 175.96,56.72 281.42,88.1 626.64,247.99 856.44,498.37z"/>
    <path class="fil2" d="M13740.02 3910.24c-200.25,-112.36 -406.65,-215.37 -623.42,-293.66 -461.97,-174.37 -937.25,-149.14 -1191.06,-6.88 -149.92,79.03 -297.78,175.64 -437.25,263.05 -64.02,44.97 -155.01,89.22 -235,133.53l-251.16 132.36 513.8 48.46 214.53 21.23c71.42,6.97 139.51,21.52 209.45,31.61 60.52,10.55 122.72,14.55 180.44,23.44 57.89,8.65 115.18,14.68 171.59,18.36 115.08,3.74 217.33,14.25 318.7,8.09 102.34,-7.67 190.04,-9.16 275.07,-28.47 41.8,-8.43 82.13,-20.08 119.09,-32.73 36,-11.31 69.74,-25.2 100.39,-41.79 97.6,-52.19 201.99,-106 307.23,-151.56 104.37,-44.11 213.67,-85.94 327.59,-125.04z"/>
    <path class="fil1" d="M12276.03 3842.35c268.18,-147.57 642.69,-152.7 945.24,-100.01 147.74,32.67 282.55,66.39 372.07,106.27 91.63,36.2 146.67,61.63 146.67,61.63 -113.92,39.1 -223.22,80.93 -327.59,125.04 -105.24,45.55 -209.63,99.37 -307.23,151.56 -30.65,16.59 -64.38,30.49 -100.39,41.79 -36.97,12.66 -77.29,24.3 -119.09,32.73 -85.03,19.31 -172.73,20.8 -275.07,28.47 -101.37,6.15 -203.62,-4.35 -318.7,-8.09 -56.41,-3.67 -113.7,-9.71 -171.59,-18.36 -57.72,-8.88 -119.92,-12.89 -180.44,-23.44 -69.93,-10.09 -138.02,-24.63 -209.45,-31.61l-214.53 -21.23 -513.8 -48.46c0,0 53.45,1.17 142.68,-2.71 44.57,-1.84 98.06,-5.02 158.16,-10.17 29.91,-2.85 61.6,-5.95 94.76,-9.19 33.11,-3.61 56.22,-8.28 86.55,-13.36 232.4,-44.62 525.52,-121.29 791.75,-260.88z"/>
    <path class="fil2" d="M15229.91 5401.17c-97.45,-215.17 -219.12,-419.34 -358.47,-610.09 -288.97,-410.32 -588.51,-776.42 -714.7,-1075.04 -145.11,-353.83 -356.89,-687.21 -607.01,-1013.34 372.82,149.34 739.85,341.62 1079.69,587.29 301.16,212.43 530.43,493.03 667.5,748.73 33.7,64.9 63.5,127.23 87.41,187.58 21.69,61.81 38.83,120.72 51.38,176.02 26.74,109.55 26.99,208.94 11.61,287.67 -23.28,125.37 -55.69,248.32 -92.59,367.33 -34.29,117.58 -79.12,233.58 -124.83,343.85z"/>
    <path class="fil1" d="M14626.12 3863.36c98.57,334.01 277.94,701.63 397.8,1004.95 28.74,76.68 60.68,145.39 84.24,210.15 23.72,64.68 46,121.58 65.13,168.77 34.03,96.3 56.61,153.95 56.61,153.95 45.71,-110.27 90.54,-226.27 124.83,-343.85 36.9,-119.01 69.31,-241.96 92.59,-367.33 15.37,-78.73 15.12,-178.12 -11.61,-287.67 -12.55,-55.3 -29.69,-114.21 -51.38,-176.02 -23.92,-60.35 -53.71,-122.68 -87.41,-187.58 -137.07,-255.7 -366.34,-536.3 -667.5,-748.73 -339.85,-245.67 -706.87,-437.95 -1079.69,-587.29 0,0 53.91,21.75 139.12,75 42.74,25.76 93.4,57.38 149.12,94.42 56.14,35.9 116.74,79.57 178.19,132.95 251.9,195.16 517.11,522.15 609.96,858.29z"/>
    <path class="fil2" d="M15135.76 5444.81c-94.68,-209.35 -212.99,-407.52 -348.21,-592.65 -69.42,-100.56 -155.18,-185.62 -238.07,-264.33 -43.81,-37.15 -89.19,-70.74 -133.25,-102.75 -43.57,-32.67 -88.5,-60.85 -135.09,-83.85 -91.2,-48.15 -178.18,-86.23 -265.23,-104.75 -85.6,-20.11 -161.61,-32.22 -234.88,-24.29 -331.62,19.63 -649.08,103.65 -934.52,207.86 240.96,97.19 463.71,215.12 660.65,357.2 175.19,121.8 336.88,234.2 498.91,319.35 39.5,21.99 80.28,41.18 120.37,58.67 37.87,19.27 76.28,35.94 114.66,49.8 78.28,26.44 149.34,47.55 218.91,52.51 112.23,7.36 223.22,22.89 335.49,44.42 114.95,20.11 225.7,49.3 340.26,82.83z"/>
    <path class="fil1" d="M13968.83 4626.95c293.66,-10.73 619.88,173.55 835.14,387.84 52.4,53.97 104.27,105.17 144.32,156.46 40.36,51.18 75.56,98.34 104.55,138.21 53.77,82.3 82.92,135.36 82.92,135.36 -114.57,-33.52 -225.31,-62.72 -340.26,-82.83 -112.27,-21.54 -223.26,-37.07 -335.49,-44.42 -69.57,-4.96 -140.63,-26.07 -218.91,-52.51 -38.38,-13.86 -76.8,-30.53 -114.66,-49.8 -40.08,-17.49 -80.87,-36.68 -120.37,-58.67 -162.04,-85.15 -323.73,-197.55 -498.91,-319.35 -196.93,-142.08 -419.68,-260 -660.65,-357.2 0,0 38.94,7.56 99.75,24.06 30.91,7.61 68.59,15.96 112.02,23.87 44.19,6.92 92.63,15.48 143.01,26.71 212.62,31.1 474.55,79.13 767.55,72.27z"/>
    <path class="fil2" d="M15607.06 7498.08c20.49,-239.26 12.4,-473.32 -9.38,-708.42 -45.16,-497.63 -75.17,-967.06 -13.7,-1282.48 76.67,-368.82 102.51,-771.36 57.56,-1194.09 245.24,344.82 435.14,721.99 572.19,1108.33 121.99,339.39 160.83,678.29 139.09,954.71 -21.2,277.49 -101.24,493.58 -206.34,611.15 -169.36,188.37 -347.86,360.65 -539.42,510.8z"/>
    <path class="fil1" d="M15888.58 5886.7c-107.03,326.63 -152.7,725.73 -198.95,1045.85 -22.48,159.18 -42.43,300.15 -56.76,401.71 -16,101.78 -25.8,163.83 -25.8,163.83 191.56,-150.15 370.06,-322.43 539.42,-510.8 105.1,-117.57 185.14,-333.66 206.34,-611.15 21.75,-276.42 -17.1,-615.32 -139.09,-954.71 -137.05,-386.33 -326.95,-763.51 -572.19,-1108.33 0,0 34.81,51.85 78.79,145.39 22.65,46.57 48.83,102.49 76.3,166.12 24.63,64.88 49.81,137.59 74.13,215.36 95.17,312.72 131.04,720.69 17.8,1046.74z"/>
    <path class="fil2" d="M15504 7486.72c19.26,-225.18 11.84,-458.76 -9.54,-687.1 -44.45,-492.2 -287.44,-906.51 -535.06,-1046.66 -289.75,-171.52 -589.7,-285.75 -879.57,-337.99 139.05,194.57 250.71,413.76 334.68,651.25 150.75,410.83 333.14,809.3 563.33,975.65 183.68,130.07 362.24,277.4 526.15,444.85z"/>
    <path class="fil1" d="M14918.23 6157.88c250.29,161.07 426.79,496.46 507.65,791.24 41.77,147.12 62.57,282.88 71.43,380.78 4.3,49 6.06,88.45 6.74,115.61 -0.07,26.56 -0.07,41.2 -0.07,41.2 -163.91,-167.45 -342.48,-314.78 -526.15,-444.85 -230.19,-166.36 -412.58,-564.82 -563.33,-975.65 -83.97,-237.49 -195.63,-456.68 -334.68,-651.25 0,0 25.22,24.84 65.72,69.21 20.81,21.65 46.74,47.28 77.85,75.63 28.53,30.19 61.59,63.58 99.7,98.6 149.07,141.78 348.82,334.9 595.13,499.47z"/>
    <path class="fil2" d="M8753.3 2079.81c-212.23,-124.27 -417.14,-244.31 -604.86,-354.24 -189.22,-111.31 -366.18,-214.1 -532.08,-291.84l-152.47 -78.42 18.82 173.96c27.05,186.94 113.59,406.4 263.27,619.17 148.27,213.7 362.03,413.75 611.06,573.41 79.47,53.56 161.97,100.63 245.05,146.63 82.11,48.56 166.94,89.94 252,131.08 92.42,47.54 189.29,77.65 278.87,95.46 89.38,18.95 171.56,24.51 238.98,12.69 103.97,-17.03 204.94,-31.03 305.58,-52.98l296.49 -68.14 -211.48 -211.83c-68.44,-70.18 -132.24,-146.82 -195.39,-218.66 -41.23,-45.78 -97.35,-94.23 -163.46,-139.1 -66.74,-43.85 -144.07,-83.1 -223.46,-120.45 -73.7,-32.03 -147.52,-64.15 -217.35,-102.33 -71.48,-35.79 -142.47,-72.47 -209.57,-114.42z"/>
    <path class="fil1" d="M8753.3 2079.81c-218.75,-127.76 -429.41,-250.86 -621.84,-363.29 62.33,47.28 119.72,100.32 184.06,148.56 63.53,48.95 125.53,99.46 193.55,143.2l99.6 68.02 104.17 62.33c74.78,47.03 148.43,93.44 211.72,141.73 62.06,50.26 117,97.04 155.57,142.1 59.15,70.6 120.21,142.39 186.29,208.25 65.49,66.91 131.38,138.37 202.65,201.07 -96.91,10.06 -191.98,9.86 -290.36,12.7 -98.76,4.06 -196.6,0.19 -296.51,-4.51 -64.79,-2.36 -144.6,-17.95 -228.79,-50.71 -85.03,-30.71 -176.7,-72.7 -262.5,-130.28l-118.51 -76.3 -114.49 -83.23c-77.49,-53.61 -149.65,-115.41 -222.56,-175.7 -73.72,-59.3 -137.23,-128.81 -202.38,-193.39 150.27,218.63 367.37,427.59 624.1,591.5 79.47,53.56 161.97,100.63 245.05,146.63 82.11,48.56 166.94,89.94 252,131.08 92.42,47.54 189.29,77.65 278.87,95.46 89.38,18.95 171.56,24.51 238.98,12.69 103.97,-17.03 204.94,-31.03 305.58,-52.98l296.49 -68.14 -211.48 -211.83c-68.44,-70.18 -132.24,-146.82 -195.39,-218.66 -41.23,-45.78 -97.35,-94.23 -163.46,-139.1 -66.74,-43.85 -144.07,-83.1 -223.46,-120.45 -73.7,-32.03 -147.52,-64.15 -217.35,-102.33 -71.48,-35.79 -142.47,-72.47 -209.57,-114.42z"/>
    <path class="fil3" d="M14274.98 6993.4c0,0 -474.2,-2011.98 -3757.51,-2494.98 -3283.32,-482.94 -3448.24,-1652.88 -3448.24,-1652.88 0,0 343.47,2080.64 3377.52,2715.59 3034.03,635.09 3828.23,1432.27 3828.23,1432.27z"/>
    <path class="fil4" d="M13176.23 6612.43c0,0 -1291.54,-460.71 -3260.88,-956.18 -1522.43,-383.14 -2095.25,-1037.16 -2095.25,-1037.16 0,0 540.01,1538.82 2443.03,1773.49 1903.02,234.68 2913.1,219.85 2913.1,219.85z"/>
   </g>
   <g>
    <path class="fil5 str0" d="M1601.2 4950.26l0 748.99 -937.79 0c7.23,152.7 39.2,264.63 95.94,336.33 67.06,85.11 174.87,127.93 323.43,127.93 53.65,0 115.55,-12.9 185.7,-39.2 59.83,-22.7 119.16,-45.92 177.96,-69.12 40.24,-14.44 72.21,-21.67 95.94,-21.67 68.09,0 102.14,31.98 102.14,95.94 0,69.12 -53.13,142.89 -159.4,221.29 -118.64,85.64 -254.83,128.45 -408.54,128.45 -472.51,0 -718.05,-259.98 -736.62,-779.95l-116.06 0c-86.67,0 -130,-49 -130,-147.53 0,-108.33 44.36,-208.39 132.57,-300.21 88.72,-91.31 186.74,-137.21 294.02,-137.21 93.37,0 139.8,46.42 139.8,138.76l0 118.13 612.81 0 0 -420.92 -1203.96 0 0 -331.17 1815.23 0 0 331.17 -283.2 0zm-659.23 1826.06c168.17,0 343.55,-36.11 526.15,-108.33l0 294.03c-53.65,18.57 -107.29,35.07 -160.94,49.51 -129.98,33.02 -251.72,50.55 -365.21,52.62 -156.81,3.1 -334.27,-30.95 -532.34,-102.13l0 -294.03c191.89,72.21 369.34,108.33 532.34,108.33zm2903.13 -1826.06l0 1528.94 -334.27 0 0 -919.22c-80.47,34.05 -142.38,68.09 -186.22,102.14 -56.74,43.33 -99.04,117.09 -126.89,221.29 -43.33,163 -70.67,256.37 -82.02,280.1 -49.01,101.1 -125.36,151.65 -229.55,151.65 -63.97,0 -119.16,-14.96 -164.55,-44.87 -54.69,-36.11 -82.03,-87.7 -82.03,-154.76 0,-88.72 51.59,-193.95 154.76,-315.17 103.17,-121.22 154.75,-221.3 154.75,-300.73 0,-120.71 -27.34,-241.93 -82.02,-363.67 -91.82,67.06 -186.74,165.07 -284.74,294.02 -109.36,144.44 -165.07,258.96 -167.13,343.55 -3.09,80.47 -28.37,150.62 -75.83,210.46 -52.62,65 -119.68,97.5 -201.18,97.5 -64.99,0 -119.68,-19.61 -164.03,-58.81 -47.45,-41.27 -71.18,-94.4 -71.18,-159.91 0,-69.12 36.63,-154.23 109.36,-256.37 72.73,-101.61 108.84,-191.37 108.84,-268.74 0,-258.44 -36.63,-387.4 -109.87,-387.4l-153.2 0 0 -331.17 250.69 0c93.37,0 171.26,62.94 234.2,189.31 47.45,93.37 79.94,202.72 97.49,329.11 74.28,-84.61 148.05,-168.68 221.81,-252.25 104.2,-105.23 193.44,-154.75 267.72,-148.56 104.2,22.7 189.83,121.22 256.89,295.58 36.63,94.91 63.45,196.53 80.99,304.85 85.63,-56.74 166.61,-100.07 242.96,-130.5l0 -587.54 622.1 0 0 331.17 -287.83 0zm699.48 0l0 848.04 -321.88 0 0 -848.04 -167.14 0 0 -331.17 821.73 0 0 331.17 -332.71 0zm1733.21 0l0 1528.94 -334.27 0 0 -229.03c-126.89,70.15 -256.37,105.23 -389.46,105.23 -183.12,0 -348.18,-65 -494.17,-194.99 -77.38,-68.61 -136.7,-156.29 -177.96,-263.59 46.42,-100.07 104.19,-186.74 173.31,-260.49 46.43,-48.49 122.26,-112.46 227.49,-191.9 -157.84,-129.98 -257.92,-295.05 -300.21,-494.17l-162.49 0 0 -331.17 1734.76 0 0 331.17 -277 0zm-334.27 0l-628.28 0c47.45,123.8 144.94,239.35 293.5,346.65l334.78 0 0 -346.65zm0 677.81l-371.91 0c-75.32,42.3 -177.96,133.6 -307.44,273.91 113.48,83.56 219.74,125.36 319.82,125.36 57.26,0 121.74,-8.77 192.92,-26.31 84.08,-21.67 139.79,-49.52 166.61,-83.57l0 -289.38zm1030.65 -677.81l0 848.04 -321.88 0 0 -848.04 -167.14 0 0 -331.17 821.73 0 0 331.17 -332.71 0z"/>
    <path id="_1" class="fil6" d="M1601.2 4950.26l0 748.99 -937.79 0c7.23,152.7 39.2,264.63 95.94,336.33 67.06,85.11 174.87,127.93 323.43,127.93 53.65,0 115.55,-12.9 185.7,-39.2 59.83,-22.7 119.16,-45.92 177.96,-69.12 40.24,-14.44 72.21,-21.67 95.94,-21.67 68.09,0 102.14,31.98 102.14,95.94 0,69.12 -53.13,142.89 -159.4,221.29 -118.64,85.64 -254.83,128.45 -408.54,128.45 -472.51,0 -718.05,-259.98 -736.62,-779.95l-116.06 0c-86.67,0 -130,-49 -130,-147.53 0,-108.33 44.36,-208.39 132.57,-300.21 88.72,-91.31 186.74,-137.21 294.02,-137.21 93.37,0 139.8,46.42 139.8,138.76l0 118.13 612.81 0 0 -420.92 -1203.96 0 0 -331.17 1815.23 0 0 331.17 -283.2 0zm-659.23 1826.06c168.17,0 343.55,-36.11 526.15,-108.33l0 294.03c-53.65,18.57 -107.29,35.07 -160.94,49.51 -129.98,33.02 -251.72,50.55 -365.21,52.62 -156.81,3.1 -334.27,-30.95 -532.34,-102.13l0 -294.03c191.89,72.21 369.34,108.33 532.34,108.33zm2903.13 -1826.06l0 1528.94 -334.27 0 0 -919.22c-80.47,34.05 -142.38,68.09 -186.22,102.14 -56.74,43.33 -99.04,117.09 -126.89,221.29 -43.33,163 -70.67,256.37 -82.02,280.1 -49.01,101.1 -125.36,151.65 -229.55,151.65 -63.97,0 -119.16,-14.96 -164.55,-44.87 -54.69,-36.11 -82.03,-87.7 -82.03,-154.76 0,-88.72 51.59,-193.95 154.76,-315.17 103.17,-121.22 154.75,-221.3 154.75,-300.73 0,-120.71 -27.34,-241.93 -82.02,-363.67 -91.82,67.06 -186.74,165.07 -284.74,294.02 -109.36,144.44 -165.07,258.96 -167.13,343.55 -3.09,80.47 -28.37,150.62 -75.83,210.46 -52.62,65 -119.68,97.5 -201.18,97.5 -64.99,0 -119.68,-19.61 -164.03,-58.81 -47.45,-41.27 -71.18,-94.4 -71.18,-159.91 0,-69.12 36.63,-154.23 109.36,-256.37 72.73,-101.61 108.84,-191.37 108.84,-268.74 0,-258.44 -36.63,-387.4 -109.87,-387.4l-153.2 0 0 -331.17 250.69 0c93.37,0 171.26,62.94 234.2,189.31 47.45,93.37 79.94,202.72 97.49,329.11 74.28,-84.61 148.05,-168.68 221.81,-252.25 104.2,-105.23 193.44,-154.75 267.72,-148.56 104.2,22.7 189.83,121.22 256.89,295.58 36.63,94.91 63.45,196.53 80.99,304.85 85.63,-56.74 166.61,-100.07 242.96,-130.5l0 -587.54 622.1 0 0 331.17 -287.83 0zm699.48 0l0 848.04 -321.88 0 0 -848.04 -167.14 0 0 -331.17 821.73 0 0 331.17 -332.71 0zm1733.21 0l0 1528.94 -334.27 0 0 -229.03c-126.89,70.15 -256.37,105.23 -389.46,105.23 -183.12,0 -348.18,-65 -494.17,-194.99 -77.38,-68.61 -136.7,-156.29 -177.96,-263.59 46.42,-100.07 104.19,-186.74 173.31,-260.49 46.43,-48.49 122.26,-112.46 227.49,-191.9 -157.84,-129.98 -257.92,-295.05 -300.21,-494.17l-162.49 0 0 -331.17 1734.76 0 0 331.17 -277 0zm-334.27 0l-628.28 0c47.45,123.8 144.94,239.35 293.5,346.65l334.78 0 0 -346.65zm0 677.81l-371.91 0c-75.32,42.3 -177.96,133.6 -307.44,273.91 113.48,83.56 219.74,125.36 319.82,125.36 57.26,0 121.74,-8.77 192.92,-26.31 84.08,-21.67 139.79,-49.52 166.61,-83.57l0 -289.38zm1030.65 -677.81l0 848.04 -321.88 0 0 -848.04 -167.14 0 0 -331.17 821.73 0 0 331.17 -332.71 0z"/>
   </g>
   <path class="fil6" d="M10369.51 11675.88c0,18.58 -2.97,39.06 -8.54,61.44 -5.95,22 -15.24,40.96 -28.61,56.51 -15.24,18.59 -32.34,32.62 -50.92,42.48 -18.95,9.49 -47.2,14.42 -85.1,14.42 -57.22,0 -102.18,-20.49 -134.89,-61.46 -32.71,-40.96 -67.64,-109.24 -104.42,-204.82 -28.98,12.51 -52.77,45.14 -70.97,97.86 -17.83,52.72 -27.13,166.13 -27.13,339.85l0 87.99 300.99 0 0 120.62 -298.77 0 0 763.53c0,28.83 6.69,51.21 19.7,67.14 13.01,15.93 30.1,27.69 51.29,34.89 17.46,6.08 40.5,11.77 68.74,17.07 28.62,5.69 53.89,9.49 76.55,11.76l0 81.93 -737.99 0 0 -81.93c18.95,-1.51 37.15,-3.41 55,-5.69 17.83,-1.9 33.82,-5.69 47.56,-11 23.41,-8.72 39.39,-21.61 47.57,-38.31 8.54,-16.31 12.63,-38.32 12.63,-65.62l0 -773.78 -220.73 0 0 -120.62 220.73 0c0,-79.26 11.14,-156.27 33.81,-230.61 22.67,-74.34 57.6,-141.09 104.79,-199.51 45.71,-57.65 106.27,-104.68 180.97,-139.96 75.06,-35.65 163.14,-53.48 264.21,-53.48 89.92,0 159.79,17.45 209.22,52.34 49.43,34.91 74.32,80.42 74.32,136.94zm1120.78 560.98c53.5,51.2 94.75,112.27 123,183.58 28.25,70.93 42.36,147.93 42.36,231 0,82.31 -14.11,159.68 -41.99,232.89 -27.87,72.83 -68.75,135.03 -122.26,187 -57.22,55.37 -125.6,98.24 -205.11,127.82 -79.53,29.58 -170.2,44.37 -272.39,44.37 -88.44,0 -169.81,-12.9 -244.51,-39.06 -74.32,-25.79 -140.1,-64.48 -197.33,-116.45 -54.99,-49.69 -98.47,-110.75 -130.43,-183.96 -31.94,-72.82 -47.93,-154.37 -47.93,-245.02 0,-88.76 14.12,-167.65 42,-237.06 27.87,-69.03 69.86,-130.86 125.59,-185.1 53.52,-51.59 119.66,-91.79 198.44,-120.25 78.79,-28.45 166.85,-42.86 263.85,-42.86 101.44,0 191,14.41 268.29,42.86 77.29,28.46 143.44,68.66 198.44,120.25zm-278.34 769.22c15.99,-41.35 27.88,-91.42 35.3,-150.59 7.82,-59.16 11.53,-127.82 11.53,-206.33 0,-51.59 -3.71,-110.76 -10.78,-177.14 -7.42,-66.75 -18.2,-119.09 -32.69,-157.78 -17.47,-46.28 -41.63,-83.07 -72.47,-109.62 -30.85,-26.55 -69.86,-39.83 -117.05,-39.83 -51.66,0 -92.91,14.41 -123.74,43.24 -30.84,28.83 -54.62,66 -71.35,111.89 -15.24,42.11 -25.64,91.42 -31.58,147.94 -5.58,56.51 -8.55,115.68 -8.55,176.74 0,80.8 2.6,147.55 7.8,200.28 4.84,52.72 17.1,105.83 36.8,158.92 16.71,45.89 40.87,82.31 72.09,108.86 31.21,26.55 70.59,39.82 118.54,39.82 43.48,0 81.01,-12.51 112.23,-37.16 31.21,-24.65 55.73,-61.07 73.94,-109.24zm1860.28 -769.22c53.5,51.2 94.75,112.27 122.99,183.58 28.25,70.93 42.36,147.93 42.36,231 0,82.31 -14.11,159.68 -41.98,232.89 -27.88,72.83 -68.75,135.03 -122.26,187 -57.22,55.37 -125.6,98.24 -205.13,127.82 -79.53,29.58 -170.19,44.37 -272.38,44.37 -88.44,0 -169.81,-12.9 -244.51,-39.06 -74.33,-25.79 -140.11,-64.48 -197.34,-116.45 -54.99,-49.69 -98.47,-110.75 -130.42,-183.96 -31.96,-72.82 -47.94,-154.37 -47.94,-245.02 0,-88.76 14.14,-167.65 42,-237.06 27.87,-69.03 69.86,-130.86 125.6,-185.1 53.52,-51.59 119.66,-91.79 198.44,-120.25 78.78,-28.45 166.85,-42.86 263.84,-42.86 101.45,0 191.01,14.41 268.3,42.86 77.29,28.46 143.44,68.66 198.44,120.25zm-278.34 769.22c15.98,-41.35 27.88,-91.42 35.3,-150.59 7.81,-59.16 11.51,-127.82 11.51,-206.33 0,-51.59 -3.71,-110.76 -10.78,-177.14 -7.42,-66.75 -18.19,-119.09 -32.69,-157.78 -17.47,-46.28 -41.62,-83.07 -72.47,-109.62 -30.85,-26.55 -69.86,-39.83 -117.05,-39.83 -51.65,0 -92.9,14.41 -123.74,43.24 -30.84,28.83 -54.62,66 -71.34,111.89 -15.24,42.11 -25.65,91.42 -31.59,147.94 -5.57,56.51 -8.54,115.68 -8.54,176.74 0,80.8 2.6,147.55 7.8,200.28 4.84,52.72 17.1,105.83 36.79,158.92 16.72,45.89 40.87,82.31 72.09,108.86 31.21,26.55 70.6,39.82 118.54,39.82 43.48,0 81.01,-12.51 112.23,-37.16 31.21,-24.65 55.74,-61.07 73.95,-109.24zm2154.95 178.27l-536.61 31.86 -16.35 -15.55 0 -102.03 -7.44 -1.9c-35.66,39.07 -83.61,73.58 -144.17,102.79 -60.21,29.2 -121.15,44 -182.83,44 -146.4,0 -266.81,-55.75 -361.57,-166.89 -94.75,-111.52 -142.32,-255.27 -142.32,-432.03 0,-156.27 53.14,-290.54 159.05,-402.82 105.9,-111.89 234.48,-168.03 384.98,-168.03 59.46,0 115.2,6.83 167.21,20.49 52.02,13.65 93.64,29.96 124.86,48.55l0 -361.86c0,-27.31 -5.57,-53.1 -16.35,-76.99 -10.77,-24.28 -25.27,-42.86 -43.48,-56.14 -22.28,-15.93 -50.16,-27.69 -83.98,-34.89 -33.45,-6.83 -67.26,-11.76 -101.44,-14.79l0 -81.93 587.86 -29.59 16.35 17.83 0 1456.89c0,28.07 4.46,51.97 13.39,70.93 9.28,19.34 23.78,34.52 44.21,45.52 14.87,8.35 37.16,14.41 66.53,17.82 29.35,3.79 53.13,6.08 72.09,6.83l0 81.93zm-555.18 -198.38l0 -630.02c-5.21,-17.06 -12.26,-36.04 -21.19,-56.89 -8.92,-20.86 -21.55,-40.59 -37.53,-59.17 -14.49,-15.55 -33.82,-29.58 -57.97,-41.34 -24.16,-11.76 -51.66,-17.82 -81.75,-17.82 -72.47,0 -131.93,42.1 -177.99,125.93 -46.45,84.2 -69.49,202.55 -69.49,355.78 0,60.31 4.09,114.55 12.63,162.35 8.17,48.16 22.67,91.79 43.85,131.23 20.81,39.45 47.94,70.17 80.64,92.55 33.07,22.38 72.83,33.38 118.91,33.38 44.23,0 80.65,-8.72 109.63,-26.17 28.98,-17.46 55.74,-40.59 80.26,-69.8zm1296.18 257.54c-70.61,0 -139.36,-10.62 -206.24,-31.47 -67.27,-20.87 -119.28,-43.24 -156.45,-66.76l-32.69 75.48 -84.73 0 -13.39 -414.2 80.26 0c10.78,33.38 29,70.93 54.26,112.66 25.27,41.73 54.25,79.28 86.58,112.27 34.19,33.38 72.84,61.44 116.69,84.2 43.84,23.14 90.67,34.52 140.47,34.52 65.77,0 114.82,-13.28 146.77,-39.45 32.33,-26.18 48.31,-66.76 48.31,-121.76 0,-29.59 -7.06,-53.86 -21.55,-73.2 -14.5,-19.34 -34.57,-36.04 -59.82,-50.07 -28.25,-14.79 -59.47,-27.31 -92.91,-37.55 -33.82,-10.63 -75.44,-23.14 -124.49,-37.93 -49.41,-14.79 -91.42,-29.96 -126.72,-45.14 -34.93,-15.17 -71.34,-39.06 -108.88,-71.3 -32.7,-29.21 -58.71,-63.73 -78.4,-104.68 -19.7,-40.59 -29.36,-89.15 -29.36,-145.28 0,-104.68 43.11,-188.88 128.94,-253.37 85.83,-64.48 198.44,-96.72 337.79,-96.72 66.14,0 126.72,6.83 182.09,20.49 55.74,13.65 102.18,28.82 140.1,45.14l22.67 -65.62 82.5 0 17.83 377.78 -75.8 0c-25.28,-76.61 -69.12,-142.99 -130.81,-198.75 -62.06,-55.75 -128.57,-83.44 -199.93,-83.44 -55.73,0 -99.96,11.76 -131.91,35.65 -31.96,23.52 -47.93,56.52 -47.93,98.62 0,56.52 23.41,97.11 70.23,122.13 46.83,25.42 112.22,48.93 196.57,71.31 129.7,34.14 224.82,80.41 285.03,139.21 60.19,59.16 90.3,133.89 90.3,224.92 0,121.76 -46.83,215.82 -140.1,282.2 -93.27,66.76 -215.16,100.13 -365.28,100.13z"/>
   <g>
    <path class="fil7" d="M1944.01 13088.66c-582.12,-21.49 -1318.42,-207.24 -1930.26,-676.43 544.41,629.62 1160.17,757.93 1930.5,786.27l-0.23 -109.84z"/>
    <path class="fil7" d="M2476.52 11251.97c275.98,135.96 -445.84,-450.53 -1066.68,-28.13 -615.55,419.95 -643,1225.46 -118.63,1733.79 17.15,16.65 28.21,44.68 51.42,49.9 47.06,10.52 142.65,71.57 254.64,94.53 220.83,72.42 518.26,77.46 870.15,-27.77 -601.55,64.13 -1165.26,-303.45 -1349.21,-879.59 -132.01,-721.6 652.62,-1384.25 1358.31,-942.73z"/>
    <path class="fil7" d="M1835.12 13200.86l6801.94 0c40.93,0 74.44,-33.46 74.44,-74.37l0 -0.04c0,-40.92 -33.51,-74.4 -74.44,-74.4l-6801.94 0c-40.9,0 -74.37,33.48 -74.37,74.4l0 0.04c0,40.92 33.47,74.37 74.37,74.37z"/>
   </g>
  </g>
 </g>
</svg>
