<svg height="512" viewBox="0 0 64 64" width="512" xmlns="http://www.w3.org/2000/svg"><g id="Back"><path d="m-524-356h860v1616h-860z" fill="#fff"/></g><g id="Flat"><path d="m43.4225 6.9574a2.9969 2.9969 0 0 0 2.4524-3.8367 2.9386 2.9386 0 0 0 -1.9956-1.9957 2.997 2.997 0 0 0 -3.8367 2.4525l-1.7657-.2837a89.9983 89.9983 0 0 0 -28.5538 0l-1.7657.2837a2.997 2.997 0 0 0 -3.8367-2.4525 2.9386 2.9386 0 0 0 -1.9956 1.9957 2.9969 2.9969 0 0 0 2.4524 3.8367l-1.6194 8.86a89.9971 89.9971 0 0 0 0 32.3658l1.6194 8.86a2.9969 2.9969 0 0 0 -2.4524 3.8367 2.9386 2.9386 0 0 0 1.9956 1.9951 2.997 2.997 0 0 0 3.8367-2.4525l1.7657.2837a89.9983 89.9983 0 0 0 28.5538 0l1.7657-.2837a2.997 2.997 0 0 0 3.8367 2.4525 2.9386 2.9386 0 0 0 1.9956-1.9957 2.9969 2.9969 0 0 0 -2.4524-3.8367l1.6194-8.86a89.9971 89.9971 0 0 0 0-32.3658z" fill="#e8aa41"/><path d="m17.75 17h-2v-7a1 1 0 0 0 -2 0v8a1 1 0 0 0 1 1h3a1 1 0 0 0 0-2z" fill="#fff"/><path d="m11.75 9h-3.5a1 1 0 0 0 -1 1v8a1 1 0 0 0 2 0v-3h1.5a1 1 0 0 0 0-2h-1.5v-2h2.5a1 1 0 0 0 0-2z" fill="#fff"/><path d="m22.75 9a3.0033 3.0033 0 0 0 -3 3v4a3 3 0 0 0 6 0v-4a3.0033 3.0033 0 0 0 -3-3zm1 7a1 1 0 0 1 -2 0v-4a1 1 0 0 1 2 0z" fill="#fff"/><path d="m32.25 9a1 1 0 0 0 -1 1v6a1 1 0 0 1 -2 0v-6a1 1 0 0 0 -2 0v6a3 3 0 0 0 6 0v-6a1 1 0 0 0 -1-1z" fill="#fff"/><path d="m39.1789 14.6214a2.99 2.99 0 0 0 -1.4289-5.6214h-2a1 1 0 0 0 -1 1v8a1 1 0 0 0 2 0v-3h.3819l1.7236 3.4473a1 1 0 0 0 1.7891-.8946zm-2.4289-3.6214h1a1 1 0 0 1 0 2h-1z" fill="#fff"/><path d="m60 31v-3l-5 8.072h8z" fill="#804d2f"/><path d="m55 36h-20l5-8h20z" fill="#9c684a"/><path d="m35 36h20v27h-20z" fill="#9c684a"/><path d="m35 36h20v5h-20z" fill="#fa934b"/><path d="m55 36.06h8v26.94h-8z" fill="#915d3f"/><path d="m54.9069 56a12.4558 12.4558 0 0 0 -19.8138 0l-.0931 3v4h20v-4z" fill="#fbeba7"/><g fill="#ffe648"><path d="m30.9282 47.6964a6.2364 6.2364 0 0 1 -2.4641 3.7321 6.2361 6.2361 0 0 1 -4.4641.2679 6.2362 6.2362 0 0 1 2.4641-3.732 6.2363 6.2363 0 0 1 4.4641-.268z"/><path d="m17.0718 47.6964a6.2364 6.2364 0 0 0 2.4641 3.7321 6.2361 6.2361 0 0 0 4.4641.2679 6.2362 6.2362 0 0 0 -2.4641-3.732 6.2363 6.2363 0 0 0 -4.4641-.268z"/><path d="m30.9282 40.3929a6.236 6.236 0 0 1 -2.4641 3.732 6.2363 6.2363 0 0 1 -4.4641.268 6.2364 6.2364 0 0 1 2.4641-3.7321 6.2366 6.2366 0 0 1 4.4641-.2679z"/><path d="m17.0718 40.3929a6.236 6.236 0 0 0 2.4641 3.732 6.2363 6.2363 0 0 0 4.4641.268 6.2364 6.2364 0 0 0 -2.4641-3.7321 6.2366 6.2366 0 0 0 -4.4641-.2679z"/><path d="m29.9277 34.0894a1 1 0 0 1 -1-1v-3.0894a1 1 0 0 1 2 0v3.0894a1 1 0 0 1 -1 1z"/><path d="m18.0723 34.0894a1 1 0 0 1 -1-1v-3.0894a1 1 0 0 1 2 0v3.0894a1 1 0 0 1 -1 1z"/><path d="m30.9282 33.0893a6.2364 6.2364 0 0 1 -2.4641 3.7321 6.2366 6.2366 0 0 1 -4.4641.2679 6.236 6.236 0 0 1 2.4641-3.732 6.2363 6.2363 0 0 1 4.4641-.268z"/><path d="m17.0718 33.0893a6.2364 6.2364 0 0 0 2.4641 3.7321 6.2366 6.2366 0 0 0 4.4641.2679 6.236 6.236 0 0 0 -2.4641-3.732 6.2363 6.2363 0 0 0 -4.4641-.268z"/><path d="m24 56a1 1 0 0 1 -1-1v-25a1 1 0 0 1 2 0v25a1 1 0 0 1 -1 1z"/><path d="m24 24a6.2365 6.2365 0 0 1 2 4 6.2365 6.2365 0 0 1 -2 4 6.2365 6.2365 0 0 1 -2-4 6.2365 6.2365 0 0 1 2-4z"/></g></g></svg>