<svg clip-rule="evenodd" fill-rule="evenodd" height="512" image-rendering="optimizeQuality" shape-rendering="geometricPrecision" text-rendering="geometricPrecision" viewBox="0 0 1707 1707" width="512" xmlns="http://www.w3.org/2000/svg"><g id="Layer_x0020_1"><g id="_397731792"><g><g><g><path d="m213 1707c-8 0-15-7-15-16v-847c0-9 7-16 15-16 9 0 16 7 16 16v847c0 9-7 16-16 16z" fill="#8bc34a"/><g fill="#689f38"><path d="m213 859c-4 0-8-2-11-5-40-40-61-93-61-150 0-56 21-110 61-150 6-6 16-6 22 0 40 40 62 94 62 150 0 57-22 110-62 150-3 3-7 5-11 5z"/><path d="m213 1042c-4 0-8-2-11-4-3-3-4-7-4-11 0-57 22-110 62-150s93-62 150-63c4 0 8 2 11 5s4 7 4 11c0 56-22 110-62 150s-93 62-150 62z"/><path d="m213 1042c-56 0-110-22-150-62s-62-94-62-150c0-4 1-8 4-11s7-5 11-5c57 1 110 23 150 63 39 39 62 92 63 147v3c0 8-7 15-16 15z"/><path d="m213 1247c-4 0-8-2-11-5s-4-7-4-11c0-56 22-109 62-149s93-63 150-63c4 0 8 2 11 5s4 7 4 11c0 56-22 109-62 149s-93 63-150 63z"/><path d="m213 1247c-56 0-110-23-150-63s-62-93-62-149c0-4 1-8 4-11s7-5 11-5c57 0 110 23 150 63 39 39 62 91 63 147v2c0 9-7 16-16 16z"/><path d="m213 1452c-4 0-8-2-11-5s-4-7-4-11c0-56 22-110 62-150s93-62 150-62c4 0 8 2 11 4 3 3 4 7 4 11 0 57-22 110-62 150s-93 62-150 63z"/><path d="m213 1452c-56-1-110-23-150-63s-62-93-62-150c0-4 1-8 4-11 3-2 7-4 11-4 57 0 110 22 150 62 39 40 62 92 63 148v2c0 9-7 16-16 16z"/></g></g><g><path d="m1468 1707c-10 0-17-8-17-18v-949c0-10 7-17 17-17s17 7 17 17v949c0 10-7 18-17 18z" fill="#8bc34a"/><g fill="#689f38"><path d="m1468 757c-5 0-9-2-12-5-45-45-69-105-69-168 0-64 24-123 69-168 6-7 18-7 24 0 45 45 69 104 69 168 0 63-24 123-69 168-3 3-7 5-12 5z"/><path d="m1468 962c-5 0-9-2-12-5s-5-7-5-12c0-63 25-123 70-168s104-69 167-70c5 0 9 2 13 5 3 4 5 8 5 13-1 63-25 122-70 167s-105 70-168 70z"/><path d="m1468 962c-63 0-123-25-168-70s-69-104-70-167c0-5 2-9 5-13 3-3 8-5 12-5h1c63 1 122 25 167 70 44 44 69 103 70 165v3c0 10-7 17-17 17z"/><path d="m1468 1192c-5 0-9-2-12-5-3-4-5-8-5-13 0-63 25-123 70-167 45-45 104-70 167-70 5-1 9 1 13 5 3 3 5 7 5 12-1 63-25 123-70 168-45 44-105 69-168 70z"/><path d="m1468 1192c-63-1-123-26-168-70-45-45-69-105-70-168 0-5 2-9 5-12 3-4 8-5 13-5 63 0 122 25 167 70 44 44 69 102 70 164v3c0 10-7 18-17 18z"/><path d="m1468 1421c-5 0-9-2-12-5s-5-8-5-12c0-64 25-123 70-168s104-70 167-70c5 0 9 2 13 5 3 3 5 8 5 12-1 64-25 123-70 168s-105 70-168 70z"/><path d="m1468 1421c-63 0-123-25-168-70s-69-104-70-168c0-4 2-9 5-12s8-5 13-5c63 0 122 25 167 70 44 44 69 103 70 165v3c0 9-7 17-17 17z"/></g></g></g><g><path d="m845 1707c-13 0-23-11-23-23v-1251c0-12 10-22 23-22s23 10 23 22v1251c0 12-10 23-23 23z" fill="#8bc34a"/><g fill="#689f38"><path d="m845 456c-6 0-12-2-16-7-59-59-91-138-91-221s32-162 91-221c8-9 24-9 32 0 59 59 91 138 91 221s-32 162-91 221c-4 5-10 7-16 7z"/><path d="m845 726c-6 0-12-2-16-6-4-5-7-10-7-16 1-84 34-162 93-221s137-92 220-93c7 0 12 3 17 7 4 4 6 10 6 16 0 84-33 162-92 221s-137 92-221 92z"/><path d="m845 726c-84 0-162-33-221-92s-92-137-92-221c0-6 2-12 7-16 4-4 10-7 16-7 83 1 162 34 221 93 58 58 90 135 92 217v4c0 12-10 22-23 22z"/><path d="m845 1028c-6 0-12-2-16-6-4-5-7-10-7-16 1-84 34-162 93-221s137-92 220-92c7-1 12 2 17 6 4 4 6 10 6 16 0 84-33 162-92 221s-137 92-221 92z"/><path d="m845 1028c-84 0-162-33-221-92s-92-137-92-221c0-6 2-12 7-16 4-4 10-7 16-6 83 0 162 33 221 92 58 58 90 135 92 217v4c0 12-10 22-23 22z"/><path d="m845 1330c-6 0-12-2-16-6-4-5-7-10-7-16 1-84 34-162 93-221s137-92 220-92c7-1 12 2 17 6 4 4 6 10 6 16 0 84-33 162-92 221s-137 92-221 92z"/><path d="m845 1330c-84 0-162-33-221-92s-92-137-92-221c0-6 2-12 7-16 4-4 10-7 16-6 83 0 162 33 221 92 58 58 90 135 92 217v4c0 12-10 22-23 22z"/></g></g></g><path d="m1595 1707h-1484c-12 0-22-11-22-23 0-13 10-23 22-23h1484c13 0 23 10 23 23 0 12-10 23-23 23z" fill="#e2926f"/></g></g></svg>