<svg id="color" enable-background="new 0 0 256 256" height="512" viewBox="0 0 256 256" width="512" xmlns="http://www.w3.org/2000/svg"><g><g><g><path d="m187.9997 160.3212-13.0057-74.3292h-121.0216l-13.0058 74.3292-17.8137 17.884-2.0343 15.3188h93.0256.6779 93.0257l-2.0343-15.3188z" fill="#895122"/></g></g><g fill="#b0713b"><path d="m190.7748 163.1072-2.775-2.786-.2043-1.1675c-7.1752 4.7038-20.6738 8.7912-39.4802 7.4949l-.34 4.9382c2.4734.1705 4.8611.2506 7.1683.2506 16.5065-.0001 28.6852-4.1132 35.6312-8.7302z"/><path d="m44.1034 142.3943-.9229 5.2743c6.7005 4.0104 18.7827 8.8143 38.224 8.8143 2.4522 0 5.0217-.0765 7.7118-.2406l-.3013-4.9409c-25.4143 1.5503-39.2272-5.2457-44.7116-8.9071z"/></g><g><g><path d="m179.7028 77.0906-47.4557-47.4557c-9.8107-9.8107-25.717-9.8107-35.5277 0l-47.4558 47.4557z" fill="#ffd44f"/></g></g><g><g><path d="m184.7454 95.0248c-.5247 4.4646-4.8129 7.478-9.1913 6.4593-17.9089-4.1669-40.9229-6.6712-61.0706-6.6712-20.1476 0-43.162 2.5043-61.0708 6.6712-4.3784 1.0187-8.6662-1.9924-9.191-6.4571-.5248-4.4648-1.1556-9.831-1.6377-13.9332-.4387-3.7318 1.934-7.2235 5.5707-8.1683 19.9096-5.1724 42.6854-8.259 66.3288-8.259 23.6433 0 46.4191 3.0865 66.3286 8.259 3.6368.9447 6.009 4.44 5.5703 8.1717z" fill="#b0713b"/></g></g><g><g><g><path d="m123.6729 30.9811c-1.7802 0-3.2286 1.4486-3.2286 3.2288 0 1.7803 1.4483 3.2286 3.2286 3.2286 1.7802 0 3.2286-1.4483 3.2286-3.2286-.0001-1.7802-1.4484-3.2288-3.2286-3.2288z" fill="#f9a730"/></g></g><g><g><path d="m111.6151 37.5126c-1.7803 0-3.2286 1.4483-3.2286 3.2286s1.4483 3.2286 3.2286 3.2286c1.7802 0 3.2286-1.4483 3.2286-3.2286-.0001-1.7802-1.4484-3.2286-3.2286-3.2286z" fill="#f9a730"/></g></g><g><g><path d="m114.325 28.3912c-1.7802 0-3.2286 1.4483-3.2286 3.2286 0 1.7805 1.4483 3.2288 3.2286 3.2288 1.7802 0 3.2286-1.4483 3.2286-3.2288 0-1.7803-1.4483-3.2286-3.2286-3.2286z" fill="#f9a730"/></g></g><g><g><path d="m121.1079 39.9474c-1.6416 0-2.9775 1.3358-2.9775 2.9774 0 1.6417 1.3358 2.9775 2.9775 2.9775s2.9775-1.3358 2.9775-2.9775c0-1.6416-1.3358-2.9774-2.9775-2.9774z" fill="#f9a730"/></g></g><g><g><path d="m133.8828 40.6639c0-1.6417-1.3358-2.9775-2.9775-2.9775s-2.9772 1.3358-2.9772 2.9775 1.3355 2.9775 2.9772 2.9775 2.9775-1.3358 2.9775-2.9775z" fill="#f9a730"/></g></g><g><g><path d="m132.1617 46.2278c-1.6417 0-2.9775 1.3358-2.9775 2.9775s1.3358 2.9775 2.9775 2.9775c1.6416 0 2.9774-1.3358 2.9774-2.9775s-1.3358-2.9775-2.9774-2.9775z" fill="#f9a730"/></g></g><g><g><path d="m140.4519 49.4937c-1.6416 0-2.9775 1.3358-2.9775 2.9775 0 1.6416 1.3358 2.9775 2.9775 2.9775s2.9772-1.3358 2.9772-2.9775-1.3355-2.9775-2.9772-2.9775z" fill="#f9a730"/></g></g></g><g><g><g><g><g><path d="m147.1022 113.0015c6.6095-14.3432-12.6-21.8787-12.6-21.8787s-9.3625 18.081 4.9806 24.6904c0 0 1.7195.7924 4.1643.0856 2.3815-.8787 3.4551-2.8973 3.4551-2.8973z" fill="#f9a730"/></g></g><g><g><path d="m137.3776 134.105c6.6093-14.3428-12.6002-21.8783-12.6002-21.8783s-9.3624 18.0807 4.9809 24.6901c0 0 1.7195.7924 4.164.0863 2.3815-.8791 3.4553-2.8981 3.4553-2.8981z" fill="#f9a730"/></g></g><g><g><path d="m127.6526 155.2093c6.6091-14.3425-12.6001-21.8787-12.6001-21.8787s-9.3625 18.0811 4.9806 24.6905c0 0 1.7195.7924 4.1639.0866 2.3816-.879 3.4556-2.8984 3.4556-2.8984z" fill="#f9a730"/></g></g><g><g><path d="m117.8803 176.416c6.6093-14.3429-12.6002-21.8784-12.6002-21.8784s-9.3624 18.0807 4.9808 24.6902c0 0 1.7195.7924 4.1642.0859 2.3816-.8791 3.4552-2.8977 3.4552-2.8977z" fill="#f9a730"/></g></g><g><g><path d="m152.3812 115.4341c6.6095-14.3432 24.8175-4.6364 24.8175-4.6364s-7.6622 18.8646-22.0054 12.2551c0 0-1.7188-.7921-2.7699-3.1098-.8798-2.3816-.0422-4.5089-.0422-4.5089z" fill="#f9a730"/></g></g><g><g><path d="m142.6566 136.5376c6.6093-14.3428 24.8174-4.6361 24.8174-4.6361s-7.662 18.8642-22.0053 12.2548c0 0-1.7188-.7921-2.7702-3.1091-.8797-2.3819-.0419-4.5096-.0419-4.5096z" fill="#f9a730"/></g></g><g><g><path d="m132.9316 157.6419c6.6091-14.3425 24.8175-4.6364 24.8175-4.6364s-7.6622 18.8645-22.0054 12.2551c0 0-1.7188-.7921-2.7703-3.1088-.8798-2.3817-.0418-4.5099-.0418-4.5099z" fill="#f9a730"/></g></g><g><g><path d="m123.1594 178.8486c6.6092-14.3428 24.8174-4.6361 24.8174-4.6361s-7.6621 18.8642-22.0053 12.2548c0 0-1.7188-.7921-2.77-3.1095-.8798-2.3818-.0421-4.5092-.0421-4.5092z" fill="#f9a730"/></g></g><g><g><path d="m160.7769 100.0499c14.8156-5.4691 6.5609-24.379 6.5609-24.379s-19.4047 6.1642-13.937 20.9801c0 0 .6561 1.7768 2.884 3.006 2.3057 1.0624 4.4921.3929 4.4921.3929z" fill="#f9a730"/></g></g></g><g><g><path d="m48.75 165.733h152.225v4.95h-152.225z" fill="#ffd44f" transform="matrix(.419 -.908 .908 .419 -80.163 211.212)"/></g></g></g><g><g><g><path d="m93.5126 239.0847-3.5003-3.5004 45.0721-45.0721c12.1021-12.1024 28.1913-18.9522 45.3033-19.2876l29.5845-.4522.0757 4.9495-29.5738.452c-15.816.3099-30.6964 6.6454-41.8894 17.8387z" fill="#f9ae35"/></g></g><g><g><g><path d="m193.714 171.8194c15.7928 0 14.5973-20.6 14.5973-20.6s-20.3397-.9361-20.3397 14.8567c0 0 0 1.8933 1.6651 3.8179 1.7946 1.7951 4.0773 1.9254 4.0773 1.9254z" fill="#ffd44f"/></g></g><g><g><path d="m173.9392 173.227c15.7206-5.0115 7.9934-25.1384 7.9934-25.1384s-20.5439 5.5226-15.5323 21.2435c0 0 .6008 1.8847 2.8683 3.2724 2.3566 1.2173 4.6706.6225 4.6706.6225z" fill="#ffd44f"/></g></g><g><g><path d="m193.714 174.8819c15.7928 0 14.5973 20.5992 14.5973 20.5992s-20.3397.9361-20.3397-14.8567c0 0 0-1.8925 1.6651-3.8171 1.7946-1.7958 4.0773-1.9254 4.0773-1.9254z" fill="#ffd44f"/></g></g><g><g><path d="m171.6856 176.2468c15.7507-1.1466 16.054 19.485 16.054 19.485s-20.2177 2.4104-21.3644-13.3408c0 0-.1374-1.8875 1.3828-3.9278 1.6599-1.9215 3.9276-2.2164 3.9276-2.2164z" fill="#ffd44f"/></g></g><g><g><path d="m211.1997 177.1685c11.1676 11.1668 24.8871-4.2441 24.8871-4.2441s-13.7195-15.0438-24.8871-3.8773c0 0-1.3391 1.3395-1.5231 3.8773 0 2.5386 1.5231 4.2441 1.5231 4.2441z" fill="#ffd44f"/></g></g><g><g><path d="m153.616 179.0965c14.5859-8.379 2.5524-26.7716 2.5524-26.7716s-19.2829 9.9273-10.9036 24.5139c0 0 1.0046 1.7487 3.5626 2.6434 2.6104.7055 4.7886-.3857 4.7886-.3857z" fill="#ffd44f"/></g></g><g><g><path d="m150.5284 183.1584c15.5104-2.9692 18.21 17.4872 18.21 17.4872s-19.801 4.7437-22.7703-10.7675c0 0-.3559-1.8587.9166-4.0619 1.4253-2.1012 3.6437-2.6578 3.6437-2.6578z" fill="#ffd44f"/></g></g><g><g><path d="m134.5123 196.077c13.2028-5.799 19.7673 11.8614 19.7673 11.8614s-16.6604 8.2512-22.4595-4.952c0 0-.6949-1.5821-.0099-3.8025.8413-2.1604 2.7021-3.1069 2.7021-3.1069z" fill="#ffd44f"/></g></g><g><g><path d="m133.6606 192.3566c14.761-9.1866 1.6603-27.7457 1.6603-27.7457s-19.5555 10.9566-10.3687 25.718c0 0 1.1013 1.7696 3.7769 2.6001 2.7221.6337 4.9315-.5724 4.9315-.5724z" fill="#ffd44f"/></g></g></g></g></g></g></svg>